<mxfile host="Electron" agent="Mozilla/5.0 (Windows NT 10.0; Win64; x64) AppleWebKit/537.36 (KHTML, like Gecko) draw.io/26.2.15 Chrome/134.0.6998.205 Electron/35.2.1 Safari/537.36" version="26.2.15">
  <diagram name="Page-1" id="tUnUw6NvtiBHD_-KkUCz">
    <mxGraphModel dx="1042" dy="660" grid="1" gridSize="10" guides="1" tooltips="1" connect="1" arrows="1" fold="1" page="1" pageScale="1" pageWidth="1100" pageHeight="850" math="0" shadow="0">
      <root>
        <mxCell id="0" />
        <mxCell id="1" parent="0" />
        <mxCell id="SGBKjIs1QQ_nhxbjecSe-1" value="Data Flow Diagram" style="text;html=1;align=center;verticalAlign=middle;whiteSpace=wrap;rounded=0;fontSize=18;fontStyle=1" parent="1" vertex="1">
          <mxGeometry x="40" y="10" width="210" height="30" as="geometry" />
        </mxCell>
        <mxCell id="SGBKjIs1QQ_nhxbjecSe-2" value="" style="rounded=0;whiteSpace=wrap;html=1;dashed=1;fillColor=none;strokeColor=#808080;" parent="1" vertex="1">
          <mxGeometry x="40" y="120" width="160" height="520" as="geometry" />
        </mxCell>
        <mxCell id="SGBKjIs1QQ_nhxbjecSe-3" value="Sources" style="rounded=0;whiteSpace=wrap;html=1;fillColor=default;strokeColor=none;fontSize=18;fontStyle=1" parent="1" vertex="1">
          <mxGeometry x="60" y="100" width="120" height="30" as="geometry" />
        </mxCell>
        <mxCell id="SGBKjIs1QQ_nhxbjecSe-15" style="edgeStyle=orthogonalEdgeStyle;rounded=0;orthogonalLoop=1;jettySize=auto;html=1;entryX=0;entryY=0.5;entryDx=0;entryDy=0;" parent="1" source="SGBKjIs1QQ_nhxbjecSe-4" target="SGBKjIs1QQ_nhxbjecSe-11" edge="1">
          <mxGeometry relative="1" as="geometry" />
        </mxCell>
        <mxCell id="SGBKjIs1QQ_nhxbjecSe-16" style="edgeStyle=orthogonalEdgeStyle;rounded=0;orthogonalLoop=1;jettySize=auto;html=1;entryX=0;entryY=0.5;entryDx=0;entryDy=0;" parent="1" source="SGBKjIs1QQ_nhxbjecSe-4" target="SGBKjIs1QQ_nhxbjecSe-9" edge="1">
          <mxGeometry relative="1" as="geometry" />
        </mxCell>
        <mxCell id="SGBKjIs1QQ_nhxbjecSe-20" style="edgeStyle=orthogonalEdgeStyle;rounded=0;orthogonalLoop=1;jettySize=auto;html=1;entryX=0;entryY=0.5;entryDx=0;entryDy=0;" parent="1" source="SGBKjIs1QQ_nhxbjecSe-4" target="SGBKjIs1QQ_nhxbjecSe-12" edge="1">
          <mxGeometry relative="1" as="geometry" />
        </mxCell>
        <mxCell id="SGBKjIs1QQ_nhxbjecSe-4" value="CRM" style="image;aspect=fixed;html=1;points=[];align=center;fontSize=12;image=img/lib/azure2/general/Folder_Blank.svg;" parent="1" vertex="1">
          <mxGeometry x="89.19" y="250" width="61.61" height="50" as="geometry" />
        </mxCell>
        <mxCell id="SGBKjIs1QQ_nhxbjecSe-24" style="edgeStyle=orthogonalEdgeStyle;rounded=0;orthogonalLoop=1;jettySize=auto;html=1;entryX=0;entryY=0.75;entryDx=0;entryDy=0;" parent="1" source="SGBKjIs1QQ_nhxbjecSe-6" target="SGBKjIs1QQ_nhxbjecSe-21" edge="1">
          <mxGeometry relative="1" as="geometry" />
        </mxCell>
        <mxCell id="SGBKjIs1QQ_nhxbjecSe-25" style="edgeStyle=orthogonalEdgeStyle;rounded=0;orthogonalLoop=1;jettySize=auto;html=1;entryX=0;entryY=0.5;entryDx=0;entryDy=0;" parent="1" source="SGBKjIs1QQ_nhxbjecSe-6" target="SGBKjIs1QQ_nhxbjecSe-22" edge="1">
          <mxGeometry relative="1" as="geometry" />
        </mxCell>
        <mxCell id="SGBKjIs1QQ_nhxbjecSe-26" style="edgeStyle=orthogonalEdgeStyle;rounded=0;orthogonalLoop=1;jettySize=auto;html=1;entryX=0;entryY=0.5;entryDx=0;entryDy=0;" parent="1" source="SGBKjIs1QQ_nhxbjecSe-6" target="SGBKjIs1QQ_nhxbjecSe-23" edge="1">
          <mxGeometry relative="1" as="geometry" />
        </mxCell>
        <mxCell id="SGBKjIs1QQ_nhxbjecSe-6" value="ERP" style="image;aspect=fixed;html=1;points=[];align=center;fontSize=12;image=img/lib/azure2/general/Folder_Blank.svg;" parent="1" vertex="1">
          <mxGeometry x="80" y="490" width="61.61" height="50" as="geometry" />
        </mxCell>
        <mxCell id="SGBKjIs1QQ_nhxbjecSe-7" value="Bronze Layer" style="rounded=1;whiteSpace=wrap;html=1;fontSize=18;fillColor=#ffe6cc;strokeColor=#d79b00;gradientColor=none;" parent="1" vertex="1">
          <mxGeometry x="280" y="120" width="160" height="40" as="geometry" />
        </mxCell>
        <mxCell id="SGBKjIs1QQ_nhxbjecSe-8" value="" style="rounded=1;whiteSpace=wrap;html=1;strokeColor=light-dark(#FFE6CC,#FFE6CC);fillColor=none;" parent="1" vertex="1">
          <mxGeometry x="280" y="170" width="160" height="470" as="geometry" />
        </mxCell>
        <mxCell id="a07x3YSDzAY2ipgOS18s-9" style="edgeStyle=orthogonalEdgeStyle;rounded=0;orthogonalLoop=1;jettySize=auto;html=1;entryX=0;entryY=0.5;entryDx=0;entryDy=0;" edge="1" parent="1" source="SGBKjIs1QQ_nhxbjecSe-9" target="a07x3YSDzAY2ipgOS18s-3">
          <mxGeometry relative="1" as="geometry" />
        </mxCell>
        <mxCell id="SGBKjIs1QQ_nhxbjecSe-9" value="crm_cust_info" style="rounded=1;whiteSpace=wrap;html=1;fontSize=12;fillColor=#ffe6cc;strokeColor=#d79b00;gradientColor=none;" parent="1" vertex="1">
          <mxGeometry x="290" y="210" width="140" height="40" as="geometry" />
        </mxCell>
        <mxCell id="a07x3YSDzAY2ipgOS18s-10" style="edgeStyle=orthogonalEdgeStyle;rounded=0;orthogonalLoop=1;jettySize=auto;html=1;" edge="1" parent="1" source="SGBKjIs1QQ_nhxbjecSe-11" target="a07x3YSDzAY2ipgOS18s-4">
          <mxGeometry relative="1" as="geometry" />
        </mxCell>
        <mxCell id="SGBKjIs1QQ_nhxbjecSe-11" value="crm_prd_info" style="rounded=1;whiteSpace=wrap;html=1;fontSize=12;fillColor=#ffe6cc;strokeColor=#d79b00;gradientColor=none;" parent="1" vertex="1">
          <mxGeometry x="290" y="270" width="140" height="40" as="geometry" />
        </mxCell>
        <mxCell id="a07x3YSDzAY2ipgOS18s-11" style="edgeStyle=orthogonalEdgeStyle;rounded=0;orthogonalLoop=1;jettySize=auto;html=1;" edge="1" parent="1" source="SGBKjIs1QQ_nhxbjecSe-12" target="a07x3YSDzAY2ipgOS18s-5">
          <mxGeometry relative="1" as="geometry" />
        </mxCell>
        <mxCell id="SGBKjIs1QQ_nhxbjecSe-12" value="crm_sales_details" style="rounded=1;whiteSpace=wrap;html=1;fontSize=12;fillColor=#ffe6cc;strokeColor=#d79b00;gradientColor=none;" parent="1" vertex="1">
          <mxGeometry x="290" y="330" width="140" height="40" as="geometry" />
        </mxCell>
        <mxCell id="a07x3YSDzAY2ipgOS18s-12" style="edgeStyle=orthogonalEdgeStyle;rounded=0;orthogonalLoop=1;jettySize=auto;html=1;entryX=0;entryY=0.5;entryDx=0;entryDy=0;" edge="1" parent="1" source="SGBKjIs1QQ_nhxbjecSe-21" target="a07x3YSDzAY2ipgOS18s-6">
          <mxGeometry relative="1" as="geometry" />
        </mxCell>
        <mxCell id="SGBKjIs1QQ_nhxbjecSe-21" value="erp_cust_az12" style="rounded=1;whiteSpace=wrap;html=1;fontSize=12;fillColor=#ffe6cc;strokeColor=#d79b00;gradientColor=none;" parent="1" vertex="1">
          <mxGeometry x="290" y="440" width="140" height="40" as="geometry" />
        </mxCell>
        <mxCell id="a07x3YSDzAY2ipgOS18s-13" style="edgeStyle=orthogonalEdgeStyle;rounded=0;orthogonalLoop=1;jettySize=auto;html=1;" edge="1" parent="1" source="SGBKjIs1QQ_nhxbjecSe-22" target="a07x3YSDzAY2ipgOS18s-7">
          <mxGeometry relative="1" as="geometry" />
        </mxCell>
        <mxCell id="SGBKjIs1QQ_nhxbjecSe-22" value="erp_loc_a101" style="rounded=1;whiteSpace=wrap;html=1;fontSize=12;fillColor=#ffe6cc;strokeColor=#d79b00;gradientColor=none;" parent="1" vertex="1">
          <mxGeometry x="290" y="500" width="140" height="40" as="geometry" />
        </mxCell>
        <mxCell id="a07x3YSDzAY2ipgOS18s-14" style="edgeStyle=orthogonalEdgeStyle;rounded=0;orthogonalLoop=1;jettySize=auto;html=1;" edge="1" parent="1" source="SGBKjIs1QQ_nhxbjecSe-23" target="a07x3YSDzAY2ipgOS18s-8">
          <mxGeometry relative="1" as="geometry" />
        </mxCell>
        <mxCell id="SGBKjIs1QQ_nhxbjecSe-23" value="erp_pr_cal_g1v2" style="rounded=1;whiteSpace=wrap;html=1;fontSize=12;fillColor=#ffe6cc;strokeColor=#d79b00;gradientColor=none;" parent="1" vertex="1">
          <mxGeometry x="290" y="560" width="140" height="40" as="geometry" />
        </mxCell>
        <mxCell id="a07x3YSDzAY2ipgOS18s-1" value="Silver Layer" style="rounded=1;whiteSpace=wrap;html=1;fontSize=18;fillColor=#f5f5f5;strokeColor=#666666;fontColor=#333333;" vertex="1" parent="1">
          <mxGeometry x="520" y="120" width="160" height="40" as="geometry" />
        </mxCell>
        <mxCell id="a07x3YSDzAY2ipgOS18s-2" value="" style="rounded=1;whiteSpace=wrap;html=1;strokeColor=#666666;fillColor=none;fontColor=#333333;" vertex="1" parent="1">
          <mxGeometry x="520" y="170" width="160" height="470" as="geometry" />
        </mxCell>
        <mxCell id="a07x3YSDzAY2ipgOS18s-3" value="crm_cust_info" style="rounded=1;whiteSpace=wrap;html=1;fontSize=12;fillColor=#f5f5f5;strokeColor=#666666;fontColor=#333333;" vertex="1" parent="1">
          <mxGeometry x="530" y="210" width="140" height="40" as="geometry" />
        </mxCell>
        <mxCell id="a07x3YSDzAY2ipgOS18s-4" value="crm_prd_info" style="rounded=1;whiteSpace=wrap;html=1;fontSize=12;fillColor=#f5f5f5;strokeColor=#666666;fontColor=#333333;" vertex="1" parent="1">
          <mxGeometry x="530" y="270" width="140" height="40" as="geometry" />
        </mxCell>
        <mxCell id="a07x3YSDzAY2ipgOS18s-5" value="crm_sales_details" style="rounded=1;whiteSpace=wrap;html=1;fontSize=12;fillColor=#f5f5f5;strokeColor=#666666;fontColor=#333333;" vertex="1" parent="1">
          <mxGeometry x="530" y="330" width="140" height="40" as="geometry" />
        </mxCell>
        <mxCell id="a07x3YSDzAY2ipgOS18s-6" value="erp_cust_az12" style="rounded=1;whiteSpace=wrap;html=1;fontSize=12;fillColor=#f5f5f5;strokeColor=#666666;fontColor=#333333;" vertex="1" parent="1">
          <mxGeometry x="530" y="440" width="140" height="40" as="geometry" />
        </mxCell>
        <mxCell id="a07x3YSDzAY2ipgOS18s-7" value="erp_loc_a101" style="rounded=1;whiteSpace=wrap;html=1;fontSize=12;fillColor=#f5f5f5;strokeColor=#666666;fontColor=#333333;" vertex="1" parent="1">
          <mxGeometry x="530" y="500" width="140" height="40" as="geometry" />
        </mxCell>
        <mxCell id="a07x3YSDzAY2ipgOS18s-8" value="erp_pr_cal_g1v2" style="rounded=1;whiteSpace=wrap;html=1;fontSize=12;fillColor=#f5f5f5;strokeColor=#666666;fontColor=#333333;" vertex="1" parent="1">
          <mxGeometry x="530" y="560" width="140" height="40" as="geometry" />
        </mxCell>
        <mxCell id="a07x3YSDzAY2ipgOS18s-15" value="Gold Layer" style="rounded=1;whiteSpace=wrap;html=1;fontSize=18;fillColor=#fff2cc;strokeColor=#d6b656;" vertex="1" parent="1">
          <mxGeometry x="800" y="122" width="160" height="40" as="geometry" />
        </mxCell>
        <mxCell id="a07x3YSDzAY2ipgOS18s-16" value="" style="rounded=1;whiteSpace=wrap;html=1;strokeColor=#d6b656;fillColor=none;" vertex="1" parent="1">
          <mxGeometry x="800" y="172" width="160" height="470" as="geometry" />
        </mxCell>
        <mxCell id="a07x3YSDzAY2ipgOS18s-17" value="fact_sales" style="rounded=1;whiteSpace=wrap;html=1;fontSize=12;fillColor=#fff2cc;strokeColor=#d6b656;" vertex="1" parent="1">
          <mxGeometry x="810" y="310" width="140" height="40" as="geometry" />
        </mxCell>
        <mxCell id="a07x3YSDzAY2ipgOS18s-18" value="dim_customers" style="rounded=1;whiteSpace=wrap;html=1;fontSize=12;fillColor=#fff2cc;strokeColor=#d6b656;" vertex="1" parent="1">
          <mxGeometry x="810" y="370" width="140" height="40" as="geometry" />
        </mxCell>
        <mxCell id="a07x3YSDzAY2ipgOS18s-19" value="dim_products" style="rounded=1;whiteSpace=wrap;html=1;fontSize=12;fillColor=#fff2cc;strokeColor=#d6b656;" vertex="1" parent="1">
          <mxGeometry x="810" y="430" width="140" height="40" as="geometry" />
        </mxCell>
        <mxCell id="a07x3YSDzAY2ipgOS18s-33" value="" style="endArrow=classic;html=1;rounded=0;exitX=1;exitY=0.5;exitDx=0;exitDy=0;entryX=0;entryY=0.5;entryDx=0;entryDy=0;" edge="1" parent="1" source="a07x3YSDzAY2ipgOS18s-3" target="a07x3YSDzAY2ipgOS18s-18">
          <mxGeometry width="50" height="50" relative="1" as="geometry">
            <mxPoint x="820" y="390" as="sourcePoint" />
            <mxPoint x="870" y="340" as="targetPoint" />
          </mxGeometry>
        </mxCell>
        <mxCell id="a07x3YSDzAY2ipgOS18s-34" value="" style="endArrow=classic;html=1;rounded=0;exitX=1;exitY=0.5;exitDx=0;exitDy=0;jumpStyle=gap;" edge="1" parent="1" source="a07x3YSDzAY2ipgOS18s-6">
          <mxGeometry width="50" height="50" relative="1" as="geometry">
            <mxPoint x="680" y="240" as="sourcePoint" />
            <mxPoint x="810" y="390" as="targetPoint" />
          </mxGeometry>
        </mxCell>
        <mxCell id="a07x3YSDzAY2ipgOS18s-35" value="" style="endArrow=classic;html=1;rounded=0;exitX=1;exitY=0.5;exitDx=0;exitDy=0;jumpStyle=gap;" edge="1" parent="1" source="a07x3YSDzAY2ipgOS18s-7">
          <mxGeometry width="50" height="50" relative="1" as="geometry">
            <mxPoint x="678" y="510" as="sourcePoint" />
            <mxPoint x="808" y="397" as="targetPoint" />
          </mxGeometry>
        </mxCell>
        <mxCell id="a07x3YSDzAY2ipgOS18s-36" value="" style="endArrow=classic;html=1;rounded=0;exitX=0.938;exitY=0.277;exitDx=0;exitDy=0;entryX=0;entryY=0.5;entryDx=0;entryDy=0;exitPerimeter=0;jumpStyle=gap;" edge="1" parent="1" source="a07x3YSDzAY2ipgOS18s-2" target="a07x3YSDzAY2ipgOS18s-19">
          <mxGeometry width="50" height="50" relative="1" as="geometry">
            <mxPoint x="680" y="240" as="sourcePoint" />
            <mxPoint x="820" y="400" as="targetPoint" />
          </mxGeometry>
        </mxCell>
        <mxCell id="a07x3YSDzAY2ipgOS18s-37" value="" style="endArrow=classic;html=1;rounded=0;exitX=1;exitY=0.5;exitDx=0;exitDy=0;entryX=0;entryY=0.75;entryDx=0;entryDy=0;jumpStyle=gap;" edge="1" parent="1" source="a07x3YSDzAY2ipgOS18s-8" target="a07x3YSDzAY2ipgOS18s-19">
          <mxGeometry width="50" height="50" relative="1" as="geometry">
            <mxPoint x="680" y="530" as="sourcePoint" />
            <mxPoint x="818" y="407" as="targetPoint" />
          </mxGeometry>
        </mxCell>
        <mxCell id="a07x3YSDzAY2ipgOS18s-38" value="" style="endArrow=classic;html=1;rounded=0;exitX=1;exitY=0.5;exitDx=0;exitDy=0;entryX=0;entryY=0.5;entryDx=0;entryDy=0;jumpStyle=gap;" edge="1" parent="1" source="a07x3YSDzAY2ipgOS18s-5" target="a07x3YSDzAY2ipgOS18s-17">
          <mxGeometry width="50" height="50" relative="1" as="geometry">
            <mxPoint x="680" y="470" as="sourcePoint" />
            <mxPoint x="820" y="400" as="targetPoint" />
          </mxGeometry>
        </mxCell>
      </root>
    </mxGraphModel>
  </diagram>
</mxfile>
